<?xml version="1.0" encoding="UTF-8"?>
<!DOCTYPE svg PUBLIC "-//W3C//DTD SVG 1.1//EN" "http://www.w3.org/Graphics/SVG/1.1/DTD/svg11.dtd">
<!-- Creator: CorelDRAW X6 -->
<svg xmlns="http://www.w3.org/2000/svg" xml:space="preserve" width="400px" height="300px" version="1.1" style="shape-rendering:geometricPrecision; text-rendering:geometricPrecision; image-rendering:optimizeQuality; fill-rule:evenodd; clip-rule:evenodd"
viewBox="0 0 400 300"
 xmlns:xlink="http://www.w3.org/1999/xlink">
 <defs>
  <style type="text/css">
   <![CDATA[
    .fil0 {fill:none}
    .fil1 {fill:#DDDDDD}
   ]]>
  </style>
 </defs>
 <g id="Layer_x0020_1">
  <metadata id="CorelCorpID_0Corel-Layer"/>
  <rect class="fil0" width="400" height="300"/>
  <path class="fil1" d="M137 29l54 13 0 0 10 -42 24 6 -10 42 22 5 10 -42 24 6 -10 42c71,24 48,99 21,104 39,44 6,102 -68,90l-11 47 -24 -6 11 -46 -22 -5 -11 46 -24 -6 11 -46 0 0 -54 -13 10 -25c19,0 29,-6 34,-22l13 -56c12,-38 8,-62 -17,-67l6 -25zm69 59l23 6c46,8 31,60 -9,48l-26 -6 11 -47zm-17 71l34 8c46,8 31,60 -9,48l-37 -9 11 -47z"/>
 </g>
</svg>
