<?xml version="1.0" encoding="UTF-8"?>
<!DOCTYPE svg PUBLIC "-//W3C//DTD SVG 1.1//EN" "http://www.w3.org/Graphics/SVG/1.1/DTD/svg11.dtd">
<!-- Creator: CorelDRAW X6 -->
<svg xmlns="http://www.w3.org/2000/svg" xml:space="preserve" width="400px" height="300px" version="1.1" style="shape-rendering:geometricPrecision; text-rendering:geometricPrecision; image-rendering:optimizeQuality; fill-rule:evenodd; clip-rule:evenodd"
viewBox="0 0 400 300"
 xmlns:xlink="http://www.w3.org/1999/xlink">
 <defs>
  <style type="text/css">
   <![CDATA[
    .fil0 {fill:none}
    .fil1 {fill:#DDDDDD;fill-rule:nonzero}
   ]]>
  </style>
 </defs>
 <g id="Layer_x0020_1">
  <metadata id="CorelCorpID_0Corel-Layer"/>
  <rect class="fil0" width="400" height="300"/>
  <path class="fil1" d="M65 158l0 49c0,10 1,16 2,18 1,2 3,4 6,6 3,1 8,2 16,2l0 4 -89 0 0 -4c8,0 14,-1 16,-2 3,-2 5,-3 6,-6 1,-2 2,-8 2,-18l0 -114c0,-10 -1,-16 -2,-18 -1,-2 -3,-4 -6,-6 -3,-1 -8,-2 -16,-2l0 -4 76 0c25,0 43,4 54,13 11,9 16,20 16,34 0,11 -4,21 -11,29 -7,8 -17,14 -29,17 -8,2 -22,3 -42,3zm0 -86l0 76c3,0 5,0 6,0 11,0 19,-3 24,-9 6,-6 9,-16 9,-29 0,-13 -3,-23 -9,-29 -6,-6 -14,-9 -26,-9l-5 0zm216 106l48 -116 71 0 0 4 -6 0c-5,0 -9,1 -12,3 -2,1 -4,3 -5,6 -1,2 -1,8 -1,16l0 116c0,9 0,15 1,17 1,2 3,4 6,6 3,2 7,3 12,3l6 0 0 4 -91 0 0 -4 6 0c5,0 9,-1 12,-3 2,-1 4,-3 5,-6 1,-2 1,-8 1,-16l0 -130 -67 160 -3 0 -68 -159 0 123c0,9 0,14 1,16 1,4 4,8 7,11 4,3 10,4 18,4l0 4 -60 0 0 -4 2 0c4,0 7,-1 11,-2 3,-1 6,-3 8,-5 2,-2 3,-5 4,-10 0,-1 0,-5 0,-13l0 -111c0,-9 0,-15 -1,-17 -1,-2 -3,-4 -6,-6 -3,-2 -7,-3 -12,-3l-6 0 0 -4 72 0 49 116z"/>
 </g>
</svg>
