<?xml version="1.0" encoding="UTF-8"?>
<!DOCTYPE svg PUBLIC "-//W3C//DTD SVG 1.1//EN" "http://www.w3.org/Graphics/SVG/1.1/DTD/svg11.dtd">
<!-- Creator: CorelDRAW X6 -->
<svg xmlns="http://www.w3.org/2000/svg" xml:space="preserve" width="400px" height="300px" version="1.1" style="shape-rendering:geometricPrecision; text-rendering:geometricPrecision; image-rendering:optimizeQuality; fill-rule:evenodd; clip-rule:evenodd"
viewBox="0 0 400 300"
 xmlns:xlink="http://www.w3.org/1999/xlink">
 <defs>
  <style type="text/css">
   <![CDATA[
    .fil0 {fill:none}
    .fil1 {fill:#DDDDDD}
   ]]>
  </style>
 </defs>
 <g id="Layer_x0020_1">
  <metadata id="CorelCorpID_0Corel-Layer"/>
  <rect class="fil0" width="400" height="300"/>
  <path class="fil1" d="M126 88c29,0 54,20 60,48 23,0 39,-9 44,-30 -12,-11 -19,-27 -19,-44 0,-34 28,-62 62,-62 34,0 62,28 62,62 0,34 -28,62 -62,62 -3,0 -6,0 -9,-1 -20,17 -20,40 -5,56 5,-1 10,-2 15,-2 34,0 62,28 62,62 0,34 -28,62 -62,62 -34,0 -62,-28 -62,-62 0,-17 7,-32 17,-43 -3,-27 -23,-32 -43,-29 -7,26 -31,45 -60,45 -34,0 -62,-28 -62,-62 0,-34 28,-62 62,-62z"/>
 </g>
</svg>
